<svg width="12" height="8" viewBox="0 0 12 8" fill="none" xmlns="http://www.w3.org/2000/svg">
<path d="M0.251263 0.931155C0.414307 0.76816 0.635411 0.676595 0.865955 0.676595C1.0965 0.676595 1.3176 0.76816 1.48065 0.931155L5.78435 5.23486L10.0881 0.931155C10.252 0.77278 10.4717 0.685145 10.6996 0.687127C10.9276 0.689107 11.1457 0.780545 11.3069 0.941745C11.4681 1.10295 11.5595 1.32101 11.5615 1.54897C11.5635 1.77694 11.4758 1.99656 11.3174 2.16054L6.39905 7.07894C6.236 7.24193 6.0149 7.3335 5.78435 7.3335C5.55381 7.3335 5.33271 7.24193 5.16966 7.07894L0.251263 2.16054C0.0882691 1.99749 -0.0032959 1.77639 -0.0032959 1.54585C-0.0032959 1.3153 0.0882691 1.0942 0.251263 0.931155Z" fill="#9B9BA5"/>
</svg>
