<svg width="20" height="18" viewBox="0 0 20 18" fill="none" xmlns="http://www.w3.org/2000/svg">
<path d="M0.640905 5.4539C0.824371 5.24729 1.11071 5.17612 1.3664 5.27357L2.40703 5.67021C3.69206 2.72679 6.62849 0.667969 10.0477 0.667969C13.6537 0.667969 16.7241 2.9579 17.8851 6.16322C18.0193 6.53386 17.8311 6.93539 17.4749 7.1042C17.003 7.32781 16.4469 7.05296 16.2561 6.56688C15.2838 4.0892 12.8702 2.33464 10.0477 2.33464C7.34222 2.33464 5.01138 3.94663 3.96657 6.26463L5.1594 6.71927C5.41509 6.81673 5.58977 7.06362 5.602 7.34482C5.61423 7.62602 5.46159 7.88615 5.21526 8.00391L2.63137 9.23923C2.29502 9.40003 1.89475 9.24747 1.73736 8.89847L0.528239 6.21746C0.41297 5.96187 0.457437 5.66051 0.640905 5.4539ZM19.4727 12.5488C19.2892 12.7554 19.0029 12.8265 18.7472 12.7291L17.7066 12.3324C16.4215 15.2759 13.4851 17.3347 10.0659 17.3347C6.46018 17.3347 3.39002 15.0452 2.22883 11.8403C2.09471 11.4701 2.28225 11.069 2.63775 10.8998C3.10968 10.6753 3.66679 10.95 3.85778 11.4365C4.83029 13.9138 7.24362 15.668 10.0659 15.668C12.7714 15.668 15.1022 14.056 16.147 11.738L14.9542 11.2834C14.6985 11.1859 14.5238 10.939 14.5116 10.6578C14.4994 10.3766 14.652 10.1165 14.8983 9.99874L17.4822 8.76343C17.8186 8.60262 18.2188 8.75518 18.3762 9.10418L19.5853 11.7852C19.7006 12.0408 19.6561 12.3421 19.4727 12.5488ZM13.6687 7.12633C13.6687 8.37633 12.627 9.41799 11.377 9.41799H9.91868V10.2513H11.5853C11.8353 10.2513 12.002 10.418 12.002 10.668V11.0847C12.002 11.3347 11.8353 11.5013 11.5853 11.5013H9.91868V12.7513C9.91868 13.0013 9.75201 13.168 9.50201 13.168H8.66868C8.41868 13.168 8.25201 13.0013 8.25201 12.7513V11.5013H7.41868C7.16868 11.5013 7.00201 11.3347 7.00201 11.0847V10.668C7.00201 10.418 7.16868 10.2513 7.41868 10.2513H8.25201V9.41799H7.41868C7.16868 9.41799 7.00201 9.25133 7.00201 9.00133V8.58466C7.00201 8.33466 7.16868 8.16799 7.41868 8.16799H8.25201V5.25133C8.25201 5.00133 8.41868 4.83466 8.66868 4.83466H11.377C12.627 4.83466 13.6687 5.87633 13.6687 7.12633ZM10.9603 6.08466H9.91868V8.16799H10.9603C11.5437 8.16799 12.002 7.70966 12.002 7.12633C12.002 6.54299 11.5437 6.08466 10.9603 6.08466Z" fill="#2E2F34"/>
</svg>
